<svg id="Layer_1" enable-background="new 0 0 512 512" viewBox="0 0 512 512" xmlns="http://www.w3.org/2000/svg"><path d="m490.3 501.9c-47.8.1-48-15.8-94.6-15.9-46.5.1-46.7 16-94.5 15.9-7.3-.2-7.2-10.9 0-11 46.6-.1 46.7-16 94.5-15.8 47.8-.2 48 15.7 94.6 15.8 7.3.1 7.2 10.9 0 11zm-283.5-26.8c-24.5 0-37 4.2-49 8.2-11.7 3.9-22.8 7.6-45.5 7.6s-33.8-3.7-45.5-7.6c-12-4-24.4-8.2-49-8.2-7.2.1-7.3 10.9 0 11 46.5.1 46.7 16 94.5 15.9 47.8.1 47.9-15.8 94.5-15.9 3 0 5.5-2.4 5.5-5.5s-2.4-5.5-5.5-5.5zm301.8-376.3c-2 1.4-4.7 1.2-6.5-.3-10.5-9.9-56.7-34.4-97.5-10 71.8-13.7 117.3 66 84.6 130.4-.9 1.9-2.8 3.1-4.9 3.1-2.5 0-4.7-1.8-5.4-4.2-6.7-34.3-38.9-83.6-89.9-97.9-2.4 3.3-6 5.6-10.1 6.5 11 91.4-15.4 184.9-65.4 261.5 41.2 9.7 74.2 26.2 95.4 38.9 16.3 1.2 26.4 4.5 36.1 7.8 11.7 3.9 22.8 7.6 45.6 7.6 7.4.1 7 10.9 0 11-24.6 0-37-4.2-49.1-8.2-11-4.3-29.3-8.1-45.5-7.6-22.7 0-33.8 3.7-45.5 7.6-31.9 10.7-66.1 10.7-98 0-11.7-3.9-22.8-7.6-45.6-7.6-22.7 0-33.8 3.7-45.4 7.6-28.6 9.6-59.6 11.6-88.7 3-18.6-5.7-26.5-10.5-54.7-10.6-3 0-5.5-2.5-5.5-5.5s2.5-5.5 5.5-5.5c23.4 0 35.8 3.8 47.4 7.6 28.5-18.9 59.1-33 90.9-42.2-39.5-60-60.4-133.3-52-205-2.7-.8-5.1-2.4-6.9-4.5-38.7 10.8-63.8 49.4-68.7 75.2-.6 2.5-2.8 4.2-5.4 4.2-2.1 0-4-1.2-4.9-3-24.6-48 6.4-109.1 60-104.3-30.1-14.3-63.7 5.8-68.3 10.8-1.9 1.5-4.5 1.7-6.5.3-2-1.3-2.9-3.8-2.2-6.1 10-34.2 48.4-54.1 80.4-40.4-7-6.8-14.2-11.2-19.8-14.1-2.2-1.1-3.4-3.5-2.9-5.9.4-2.4 2.4-4.2 4.8-4.5 23.1-2.4 44.9 7.6 55.9 24.7 13.2-19.5 39.6-29.2 66.3-23.4 2.4.5 4.1 2.6 4.3 5s-1.2 4.7-3.6 5.6c-9.6 3.6-23.5 10.9-35.8 24.5 31.6-13.2 70 2.2 84.2 33.5 1 2 .6 4.4-.9 6s-3.9 2.2-6 1.4c-15.1-5.6-38.4-10.9-65.5-6 48.8 10.6 63.2 72 32.4 112.3-1 1.4-2.7 2.2-4.4 2.2-2.9 0-5.4-2.4-5.5-5.3-.2-27.1-18.3-70-55.3-87.5-1.6.9-3.3 1.4-5.2 1.6.6 71.8 31.7 140.3 80 192.7 16-2.1 31.2-2.7 47.1-2.1 63.1-68.2 103.8-157.1 104.1-250.8-2.9-.2-5.7-1-8.1-2.5-48.6 22.9-72 77.8-72.5 113.9-.1 2.9-2.6 5.3-5.5 5.2-1.7 0-3.3-.8-4.4-2.2-41.1-53.4-18-135.4 48.7-143-37.2-9.2-72.4-1.6-93 6.2-2.1.8-4.5.3-6-1.4-1.5-1.6-1.9-4.1-.9-6.1 18.8-41.6 71.8-60.5 112.1-39.4-15.4-19.9-37.7-32.2-51-37-2.3-.9-3.7-3.1-3.6-5.6.2-2.4 2-4.4 4.3-4.9 34.4-7.5 68.4 5.6 84.6 31.4 13.2-22.6 41.4-36.1 71.5-33 2.4.3 4.4 2.1 4.8 4.5s-.8 4.8-2.9 5.9c-8.9 4.5-20.8 12.2-31.7 24.6 40.9-23.9 95.4 1 108.7 47 .3 2.4-.6 4.9-2.6 6.3zm-395.6 75.2c2.4-1 5.3.1 6.6 2.4.6 1 1.6 1.7 2.7 1.9 2.6.4 4.9-2.6 3.8-5-1.4-2.6-4.5-2.3-5.4-5.2-.9-2 .1-3.8.6-5.6.2-1.9-1.2-3.7-2.9-4v-.1c-.1-.1-.2-.1-.3-.2l-.1.2c-1.2-.2-3 .7-3.5 1.5-.6 1-.7 1.7-.5 2.9.7 3.5-2.4 6.9-5.9 6.5-2.4-.2-4.5 2.4-3.7 4.7.6 2.1 3.2 3.2 5.2 2.1 1.4-.7 2.2-1.7 3.4-2.1zm108.9 217.2c-50.7 3.5-99.5 19.9-143 47 26 6.7 53.6 4.7 78.9-3.8 12-4 24.4-8.2 49-8.2 24.5 0 37 4.2 49 8.2 24.4 8.1 53 9.4 78 3.4 17.3-4.1 34.2-10.4 52-11.3-41.9-23.3-110.9-40.4-163.9-35.3zm152.9-287.8c-3.5.4-6.6-3.1-5.8-6.5.6-3.1-1.2-6.4-4.4-7.3-4.9-1.5-9.7 4.1-7.2 8.7.7 1.4.8 3 .3 4.5-.6 1.5-1.8 2.6-3.2 3.2-4.2 1.5-5.6 7-2.4 10.2 2.8 2.9 7.9 2.2 9.8-1.3.9-1.5 2.4-2.5 4.1-2.7s3.5.4 4.6 1.6c3.1 3.3 9 2.2 10.5-2.2 1.4-4.1-2.3-8.6-6.3-8.2z"/></svg>